<svg xmlns="http://www.w3.org/2000/svg" xmlns:xlink="http://www.w3.org/1999/xlink" width="68" height="68" viewBox="0 0 68 68">
    <defs>
        <path id="prefix__a" d="M0.705 48.822L46.101 48.822 46.101 0 0.705 0z"/>
    </defs>
    <g fill="none" fill-rule="evenodd">
        <rect width="68" height="68" fill="#F4F4F4" rx="18.133"/>
        <g transform="translate(9.067 9.067)">
            <path fill="#FECC00" d="M44.272 44.313h-.502l-.034-.235c-.223-1.598-1.368-2.935-2.913-3.41l-.192-.058V3.946c0-.579-.473-1.052-1.053-1.052h-1.155V.886c0-.489-.398-.886-.887-.886h-17.52c-.49 0-.887.397-.887.886v2.008h-1.155c-.581 0-1.053.472-1.053 1.051v20.878l-1-.665c-.293-.196-.668-.195-.96-.001l-2.965 1.97v-1.115c0-.55-.45-1-1.001-1H7.716c-.552 0-1.002.45-1.002 1v1.093c0 .342.173.656.46.841l.125.08v2.223l-3.346 2.224c-.708.471-.94 1.392-.538 2.143.217.407.6.705 1.049.817.445.112.926.03 1.31-.223l.419-.278v10.381H2.534c-1.009 0-1.829.819-1.829 1.826 0 1.007.82 1.826 1.83 1.826h41.738c1.009 0 1.828-.819 1.828-1.826 0-1.007-.82-1.826-1.829-1.826"/>
            <mask id="prefix__b" fill="#fff">
                <use xlink:href="#prefix__a"/>
            </mask>
            <path fill="#000" d="M34.519 11.688h2.607V8.012h-2.607v3.676zm3.873-4.12c0-.394-.35-.716-.781-.716h-3.576c-.431 0-.782.322-.782.717v4.562c0 .395.35.717.782.717h3.576c.43 0 .781-.322.781-.717V7.57zM34.519 21.967h2.607v-3.676h-2.607v3.676zm3.873-4.12c0-.394-.35-.717-.781-.717h-3.576c-.431 0-.782.323-.782.717v4.563c0 .395.35.716.782.716h3.576c.43 0 .781-.32.781-.716v-4.563zM34.52 31.39h2.606V27.71H34.52v3.678zm-1.267.442c0 .395.35.716.782.716h3.576c.43 0 .781-.321.781-.716v-4.563c0-.396-.35-.717-.781-.717h-3.576c-.431 0-.782.321-.782.717v4.563zM17.282 40.899h4.534v-2.142h-4.534v2.142zm4.918-3.212h-5.303c-.427 0-.774.322-.774.718v3.029c0 .295.26.535.579.535h5.693c.32 0 .58-.24.58-.535v-3.029c0-.396-.347-.718-.775-.718z" mask="url(#prefix__b)"/>
            <path fill="#000" d="M44.272 46.292c.363 0 .659.301.659.671 0 .37-.296.67-.66.67H2.535c-.363 0-.659-.3-.659-.67 0-.37.296-.671.659-.671h41.738zM9.433 45.104h3.908v-7.315H9.433v7.315zm6.487-17.928c-.09-.06-.192-.104-.303-.127l-.103-.017c-.158-.018-.313.017-.456.089-.04.019-.07.036-.1.056l-9.831 6.652c-.113.075-.247.099-.378.066-.13-.032-.239-.118-.303-.241-.115-.22-.049-.49.156-.63l10.838-7.331 10.838 7.331c.205.14.272.41.156.631-.063.12-.17.206-.301.24-.04.01-.08.014-.119.014-.091 0-.181-.027-.26-.08l-9.834-6.653zm-5.279.827h-.727l-1.445.976v-1.39H9.7v-.14l.566-.033.111.173h.15l-.104.07.219.344zM7.885 26.4h2.94v-.77h-2.94v.77zm15.633 1.261v2.068l-2.236-1.514h-.083l-.11-.129-.626-.425h3.055zm12.006 16.893c.042-.033.078-.058.119-.085.075-.05.117-.075.157-.097l.198-.097c.04-.018.072-.03.106-.043.074-.027.117-.04.16-.052.063-.018.112-.03.164-.039.09-.017.14-.025.188-.03.179-.018.336-.118.433-.275.554-.901 1.508-1.44 2.55-1.44.058 0 .115.003.177.007l.106.008.089.01-.003.154.016-.153c1.239.162 2.262 1.102 2.545 2.342l.077.34-6.895.002c-.047.082-.134.137-.234.137-.102 0-.19-.056-.236-.14h-.334l.617-.55zM20.298 2.945h16.954V1.19H20.298v1.756zm7.264 28.495h2.427V27.66h-2.427v3.779zm6.47 9.694h2.427v-3.778h-2.426v3.778zM.706 46.963c0 1.025.82 1.859 1.829 1.859h41.739c1.008 0 1.828-.834 1.828-1.859 0-1.026-.82-1.86-1.83-1.86h-.502l-.034-.238c-.222-1.626-1.367-2.988-2.912-3.47l-.193-.06V17.162c0-.328-.262-.594-.584-.594-.324 0-.586.266-.586.594v24.042l-.888.13v.003l-.57.192-.373.156v-4.783c0-.406-.324-.735-.723-.735h-3.32c-.399 0-.723.329-.723.735v4.686c0 .405.324.734.723.734h3.135l-.49.621-.281.091-.122-.158.052.18c-.057.018-.102.032-.146.048l-.16-.228.085.257-.417.194c-.041.022-.081.047-.128.076l-.21-.195.147.233c-.056.037-.11.074-.165.115l-.067.05c-.048.038-.09.07-.13.104-.091.084-.128.117-.163.151l-.249-.137.193.194-.155.172-.09.11-.137.191-.27-.087.226.152c-.03.049-.061.1-.092.157-.053.093-.087.157-.116.22v.055l-.051.057h.001l-.061.19-.183-.031h-8.854V34.537l.42.284c.038.025.078.05.12.072l.058.03c.269.135.571.192.873.166.093-.007.176-.02.257-.04.1-.026.196-.06.286-.103l.06-.031c.046-.024.085-.045.122-.068l.003-.003.002.002v-.002c.05-.032.095-.065.138-.1l.021-.016c.173-.144.314-.316.418-.513.201-.382.25-.82.137-1.235l-.097-.351h2.93c.398 0 .723-.33.723-.736v-4.686c0-.405-.325-.734-.724-.734h-3.32c-.398 0-.723.33-.723.734v4.466l-1.704-1.153v-3.313c0-.406-.325-.735-.724-.735h-3.319c-.296 0-.56.181-.67.462l-.125.313-1.759-1.19V4.134h21.37v8.69c0 .327.261.593.585.593.322 0 .584-.266.584-.594V4.016c0-.59-.472-1.07-1.053-1.07h-1.155V.901c0-.498-.398-.902-.886-.902h-17.52c-.49 0-.887.404-.887.902v2.043h-1.155c-.581 0-1.053.48-1.053 1.07v21.25l-1-.676c-.293-.199-.669-.198-.961 0l-2.964 2.005V25.46c0-.562-.45-1.018-1.002-1.018H7.717c-.552 0-1.002.456-1.002 1.018v1.112c0 .347.172.667.46.856l.124.081v2.264l-3.345 2.263c-.71.48-.941 1.417-.539 2.181.218.414.6.718 1.049.832.445.113.927.03 1.308-.227l.421-.284v3.639c0 .328.262.595.585.595.322 0 .585-.267.585-.595v-4.432l8.077-5.464 8.077 5.464v11.36H14.51v-7.608c0-.494-.395-.896-.88-.896H9.143c-.486 0-.881.402-.881.896v7.608h-.9v-2.589c0-.328-.263-.594-.585-.594-.323 0-.585.266-.585.594v2.589H2.534c-1.008 0-1.829.833-1.829 1.859zM35.394 43.255v-.001z" mask="url(#prefix__b)"/>
            <path fill="#000" d="M27.667 40.81h2.607v-3.677h-2.607v3.677zm-.633-4.836c-.349 0-.633.26-.633.58v4.835c0 .32.284.58.633.58h3.873c.349 0 .633-.26.633-.58v-4.836c0-.32-.284-.58-.633-.58h-3.873zM21.672 21.967h2.606v-3.676h-2.606v3.676zm-1.267.443c0 .395.35.716.783.716h3.574c.431 0 .782-.32.782-.716v-4.563c0-.394-.35-.717-.782-.717h-3.574c-.432 0-.783.323-.783.717v4.563zM21.672 11.688h2.606V8.012h-2.606v3.676zm3.872-4.12c0-.394-.35-.716-.782-.716h-3.574c-.432 0-.783.322-.783.717v4.562c0 .395.35.717.783.717h3.574c.431 0 .782-.322.782-.717V7.57zM27.667 11.688h2.606V8.012h-2.606v3.676zM31.54 7.57c0-.395-.35-.717-.782-.717h-3.575c-.431 0-.782.322-.782.717v4.562c0 .395.35.717.782.717h3.575c.432 0 .782-.322.782-.717V7.57zM27.667 21.967h2.607v-3.676h-2.607v3.676zm-1.266.443c0 .395.35.716.782.716h3.575c.432 0 .782-.32.782-.716v-4.563c0-.394-.35-.717-.782-.717h-3.575c-.431 0-.782.323-.782.717v4.563z" mask="url(#prefix__b)"/>
        </g>
    </g>
</svg>