<svg xmlns="http://www.w3.org/2000/svg" xmlns:xlink="http://www.w3.org/1999/xlink" width="68" height="68" viewBox="0 0 68 68">
    <defs>
        <path id="prefix__a" d="M0.001 0.737L38.728 0.737 38.728 37.294 0.001 37.294z"/>
        <path id="prefix__c" d="M0.051 0.221L38.776 0.221 38.776 18.209 0.051 18.209z"/>
    </defs>
    <g fill="none" fill-rule="evenodd">
        <rect width="68" height="68" fill="#F4F4F4" rx="18.133"/>
        <g>
            <g fill="#FECC00">
                <path d="M20.197 14.21l.346-.422.143.528c.272 1.016.785 1.967 1.481 2.751l.092.103-.025.137c-.012.06-.02.12-.024.18v4.89c0 1.335 1.07 2.42 2.384 2.42h.282v9.288c-.002.24.127.454.337.56l1.776.9c.169.086.37.086.54 0l1.777-.9c.21-.106.339-.32.336-.559v-9.289h.282c1.315 0 2.384-1.085 2.384-2.42V17.47c-.004-.048-.013-.117-.025-.182l-.025-.136.093-.104c.572-.638 1.011-1.372 1.306-2.18l.08-.22.232.04c1.206.203 2.391-.349 3.023-1.408.785-1.315.572-2.977-.513-4.046l-7.23-7.331C28.148.783 26.625.142 25.067.142h-9.356c-.083-.01-.161.016-.238.05L9.315 2.843h-.992V.761c0-.34-.271-.62-.606-.62H.61c-.334 0-.606.28-.606.62v14.41c0 .343.272.62.606.62h7.107c.335 0 .606-.277.606-.62V13.09h.622l.06.2c.626 2.13 3.45 3.402 5.819 3.402 2.084.056 4.041-.861 5.373-2.481M52.387 38.794l-4.984-1.825c-.147-.055-.307-.047-.452.019-.147.068-.26.191-.318.347l-.397 1.1-6.04-2.215c-.101-.04-.204-.046-.305-.029l-12.014 2.135c-.995.178-1.866.826-2.33 1.732l-.114.22-5.744-2.107c-.806-.296-1.71-.257-2.483.11-.998.468-1.689 1.4-1.851 2.494-.2 1.571.736 3.09 2.226 3.602l18.158 6.649c.126.048.265.05.394.006l5.165-1.755.895.327-.396 1.094c-.115.319.048.671.363.786l4.986 1.825c.067.024.156.025.201.036h.001c.254 0 .48-.16.567-.4l4.838-13.37c.11-.316-.052-.667-.366-.781" transform="translate(6.8 5.667) translate(.558 1.56)"/>
            </g>
            <g transform="translate(6.8 5.667) translate(0 .008)">
                <mask id="prefix__b" fill="#fff">
                    <use xlink:href="#prefix__a"/>
                </mask>
                <path fill="#000" d="M8.602 4.8H9.813c.084 0 .166-.016.245-.05l6.365-2.734H25.909c1.283 0 2.536.526 3.44 1.446l7.472 7.551c.699.66.855 1.714.374 2.558-.36.576-.988.926-1.651.926h-.022l-.32-.004-.009-.318c.026-.242.04-.487.041-.731-.003-3.93-3.169-7.13-7.055-7.135-1.18.002-2.35.31-3.384.892l-.067.036h-7.28v1.276h9.813c1.172 0 2.127.963 2.127 2.147 0 1.184-.955 2.147-2.127 2.147h-6.43c-.346 0-.627.286-.627.638 0 1.58-2.373 3.075-4.883 3.075s-4.882-1.494-4.882-3.075c0-.352-.282-.638-.628-.638h-1.21V4.801zm22.011 5.565l-.012-.1c-.08-.704-.37-1.355-.838-1.882l-.745-.838 1.058.371c2.19.77 3.713 2.773 3.882 5.106l.058.786-3.403-3.443zm3.028 5.03c-.2.593-.495 1.143-.874 1.637l-.165.212-.225-.146c-1.268-.824-2.73-1.346-4.23-1.508-1.433.161-2.893.68-4.161 1.504l-.224.146-.164-.211c-.588-.758-.98-1.66-1.135-2.61l-.054-.335h4.852c1.248-.023 2.373-.671 2.95-1.785l.183-.354 2.852 2.883c.088.081.187.164.291.24l.172.125-.068.202zm-1.498 8.26c0 .673-.544 1.22-1.21 1.22h-5.51c-.666 0-1.209-.547-1.209-1.22V19.36l.439.259c.593.348 1.232.606 1.9.766l.145.035.056.137c.268.657.94 1.053 1.637.965.696-.09 1.251-.643 1.347-1.347.098-.706-.285-1.393-.933-1.671-.646-.28-1.399-.084-1.832.474l-.118.153-.187-.05c-.546-.144-1.067-.37-1.547-.669l-.4-.248.401-.246c.928-.567 1.945-.92 3.022-1.047l.038-.004.038.005c1.354.193 2.668.708 3.798 1.492l.125.086v5.207zm-2.755 11.673l-1.21.612-1.209-.612v-9.177h2.419v9.177zM1.254 15.591h6.092V2.016H1.254V15.59zm8.051-1.3c.649 2.195 3.568 3.505 6.016 3.505 2.157.057 4.178-.887 5.555-2.557l.36-.434.146.543c.282 1.048.813 2.028 1.532 2.836l.096.106-.028.14c-.011.062-.02.125-.024.188v5.038c0 1.375 1.107 2.495 2.465 2.495h.292v9.573c-.002.247.131.467.347.576l1.837.929c.175.087.384.087.557 0l1.838-.928c.216-.11.35-.33.349-.576v-9.574h.29c1.36 0 2.465-1.12 2.465-2.495V18.6c-.003-.05-.013-.12-.026-.188l-.026-.14.096-.107c.592-.657 1.046-1.413 1.351-2.247l.083-.227.239.04c1.246.212 2.473-.357 3.127-1.45.81-1.354.591-3.069-.531-4.17l-7.476-7.555C29.098 1.4 27.524.739 25.912.739H16.24c-.085-.01-.166.016-.246.052L9.627 3.524H8.602V1.377c0-.351-.282-.638-.628-.638H.627C.28.74 0 1.026 0 1.377V16.23c0 .352.28.638.626.638h7.347c.346 0 .628-.286.628-.638v-2.146h.641l.062.208z" mask="url(#prefix__b)"/>
            </g>
            <g transform="translate(6.8 5.667) translate(15.67 37.662)">
                <mask id="prefix__d" fill="#fff">
                    <use xlink:href="#prefix__c"/>
                </mask>
                <path fill="#000" d="M27.119 12.67c-.134-.05-.279-.052-.412-.01l-5.337 1.838-.098-.036L2.809 7.608c-.98-.332-1.6-1.303-1.5-2.357.09-.658.456-1.222 1.007-1.559.551-.336 1.216-.401 1.82-.176l6.115 2.27.003.197c.002.16.015.318.037.476.33 1.848 2.085 3.097 3.895 2.78l10.002-1.798-.22-1.265-9.993 1.8c-1.139.195-2.243-.583-2.455-1.74-.045-.253-.043-.504.005-.75l.013-.081c.016-.102.043-.201.08-.296.255-.71.876-1.242 1.619-1.378l12.255-2.204 6.082 2.257-3.32 9.305-1.135-.42zm6.25-10.204l3.98 1.477-4.57 12.808-3.98-1.478 4.57-12.807zm-5.58 13.792l5.155 1.913c.07.026.16.026.208.038h.001c.262 0 .497-.169.585-.42L38.74 3.777c.115-.332-.053-.7-.377-.82L33.21 1.047c-.152-.057-.318-.05-.467.02-.153.071-.27.2-.328.363l-.412 1.153L25.758.26c-.103-.04-.21-.048-.314-.029l-12.42 2.238c-1.029.186-1.93.865-2.408 1.813l-.117.233-5.94-2.209c-.833-.311-1.767-.269-2.567.114C.962 2.91.247 3.888.079 5.035-.13 6.682.84 8.273 2.381 8.811l18.77 6.967c.13.05.275.052.408.006l5.34-1.838.925.342-.41 1.146c-.118.334.05.704.376.824z" mask="url(#prefix__d)"/>
            </g>
        </g>
    </g>
</svg>