<svg xmlns="http://www.w3.org/2000/svg" width="68" height="68" viewBox="0 0 68 68">
    <g fill="none" fill-rule="evenodd">
        <rect width="68" height="68" fill="#F4F4F4" rx="18.133"/>
        <g>
            <path fill="#FECC00" d="M47.52 13.073c.282 0 .534-.163.66-.424.125-.262.098-.57-.072-.804L39.898.458c-.18-.253-.497-.364-.79-.278L.882 11.57c-.35.105-.577.467-.527.842.049.377.362.662.728.662h5.795v15.168H1.898c-.856 0-1.552.747-1.552 1.665v8.075c0 .918.696 1.665 1.552 1.665h11.429c.855 0 1.551-.747 1.551-1.665v-8.075c0-.918-.696-1.665-1.551-1.665h-4.98V13.073h24.546V47.98H.5v1.534h47.603V47.98h-4.306V13.073h3.723z" transform="translate(9.067 6.8)"/>
            <g stroke="#000" stroke-width="1.085">
                <path stroke-linejoin="round" d="M0 12.081L48.167 12.081 39.207 0z" transform="translate(9.067 6.8) translate(.368 .368)"/>
                <path d="M33.332 12.209H43.015V49.679H33.332zM0 49.679L47.995 49.679M39.207 0L39.207 11.531" transform="translate(9.067 6.8) translate(.368 .368)"/>
                <path d="M42.433 12.209L33.753 25.471 42.594 25.471 33.753 39.364 42.594 39.364 36.285 49.679M7.032 12.209L7.032 29.203" transform="translate(9.067 6.8) translate(.368 .368)"/>
                <path stroke-linejoin="round" d="M0.073 29.049H13.966000000000001V39.574H0.073z" transform="translate(9.067 6.8) translate(.368 .368)"/>
            </g>
        </g>
    </g>
</svg>